<svg version="1.1" id="Feature" xmlns="http://www.w3.org/2000/svg" xmlns:xlink="http://www.w3.org/1999/xlink" x="0" y="0" width="500" height="500" viewBox="0 0 770 625" enable-background="new 0 0 770 625" xml:space="preserve"><ellipse fill="#EFEFEF" cx="329.8" cy="577" rx="157" ry="6"/><path fill="none" stroke="#555" stroke-width="10" stroke-miterlimit="10" d="M648.5,552.5c7.3,0.5,54.6,0.9,61.9,1.4	c15.3,0.9,40.7-2,48.4,14.7c10.4,22.6-14.4,34.6-31.3,35.2c-69.9,2.5-139.4,1.7-209.2-1.2"/><path fill="#AAA" d="M607.1,501.3h44v-83.5c0-8.5-6.9-15.4-15.4-15.4h-28.6V501.3z"/><g id="Cleaner_2_"><g id="Cleaner_3_"><g><g><g><g><path fill="#DBDBDB" d="M260.3,560l-33.5-7.1l6.2-7.2c3.3-3.8,8.3-30.7,8.3-30.7l27.4-1l-4.5,40.7L260.3,560z"/><path fill="#E0AA88" d="M247.6,161.8L277,176c0,0,3.5,12.4,1.4,18.6c-0.5,1.5-10.1,36.9-10.1,36.9l-31.5-6l1-18.7l0.7-14 c0,0,1.4-11.4,2.2-15.2C241.8,171.8,247.6,161.8,247.6,161.8z"/><path fill="#C18B6F" d="M276.8,199c-1.8,5.4-3.7,14.6-3.7,14.6s-11.3-5.7-18.4-9.3c-7.1-3.6-16.3-9.5-16.3-9.5 s0.3-4.5,0.4-5.7C251.7,191.3,264.5,194.6,276.8,199z"/><path fill="#3455B1" d="M285.1,131.4c-1.1,11.1-4.3,21.3-7.2,32c-2.9,10.8-4.7,21.7-8.2,32.4c-0.2,0.5-0.4,1.1-0.9,1.3 c-0.4,0.2-0.9,0.1-1.4,0c-5.4-1.1-9.1-3.7-13.5-6.7c-4.8-3.3-10.2-5.7-15-9.1c-0.8-0.6-1.8-1.3-2-2.4c-0.2-0.6,0-1.2,0.1-1.8 c3.7-16.9,7.2-33.5,19.1-46.7c2.4-2.7,8.3-5.8,14.1-7.4C278.1,120.9,286,121.9,285.1,131.4z"/><path fill="#3651B4" d="M238.3,171.1l26.1,3.9l16.8,37.1c0,0-18.1-8.7-25-12c-14-6.6-22-10.1-22-10.1L238.3,171.1z"/><linearGradient id="SVGID_1_" gradientUnits="userSpaceOnUse" x1="8957.901" y1="291.227" x2="9045.894" y2="415.349" gradientTransform="matrix(-1 0 0 1 9303.0039 26)"><stop offset=".356" stop-color="#DCC09E"/><stop offset="1" stop-color="#DCC09E"/></linearGradient><path fill="url(#SVGID_1_)" d="M249.8,403c0.4-3.2,1.2-6.3,2.4-9.2l49.2-119.3l81.8,7.2L360.7,330l-26.3,29.4 c0,0-29.4,38.9-35.3,50.5s-28.5,116.7-28.5,116.7l-33-6.8L249.8,403z"/><linearGradient id="SVGID_2_" gradientUnits="userSpaceOnUse" x1="419.6" y1="273.15" x2="466.1" y2="273.15" gradientTransform="matrix(-1 0 0 -1 776.2333 626)"><stop offset=".356" stop-color="#C2A98B"/><stop offset="1" stop-color="#C2A98B"/></linearGradient><polygon fill="url(#SVGID_2_)" points="332.4,313.5 356.6,330 310.1,392.2"/><g><path fill="#DBDBDB" d="M452.1,554.9c-0.8,0.7-0.9,1-1.9,0.9c-1.1,0-2.5-0.9-3.6-1.1c-2.4-0.5-4.9-0.6-7.3-0.9 c-6.8-0.7-13.5-2.2-20.1-3.7c3.3,1.2,7.3-0.3,8.9-3.4c1.2-2.1,1.1-4.6,1.1-7c-0.1-6-6.5-9.7-6.7-15.7 c-0.1-3.4,5.2-9,5.1-12.4l18-3.5c0,0,9.3,21.2,10.1,22.6c2,3.5,2.5,18.8,2.5,18.8C456.3,551.3,454.4,553.2,452.1,554.9z"/><path fill="#DBDBDB" d="M460.1,574.5v-4.9c0-1.4-1.1-2.5-2.5-2.5c-6.7,0-13.5,0-20.2,0c-4.7,0-9.9,0.7-14.5,0.5 c-4.8-0.3-8.8-4.4-12.2-7.4c-0.2-0.2-0.4-0.4-0.7-0.4c-0.6-0.1-1,0.5-1.2,1c-1.7,3.9-1.5,8.3-1.5,12.5c0,2.1,1.7,3.7,3.7,3.7 h46.6C459,577,460.2,575.9,460.1,574.5z"/><g><path fill="#3965C6" d="M460.5,547.2c-0.2-1.3-0.5-3.3-1.7-4c-0.3-0.2-0.8-0.3-1.2-0.3c-1.3,0.3-2.5,0.5-3.7,0.7h-0.1 c-1.2,0.2-2.5,0.4-3.7,0.5c-0.3,0-0.6,0.1-0.9,0.1c-0.5,0-1,0.1-1.5,0.1c-0.4,0.1-0.9,0.1-1.3,0.1c-0.1,0-0.2,0-0.3,0 c-0.6,0-1.1,0-1.6,0c-1.1,0-2.1,0-3.1-0.1c-4.3-0.3-11-4.9-14.7-2.6c-1.4,0.9-2.4,2.2-3.5,3.4c-3.1,3.6-6.4,7.1-9.8,10.4 c-0.3,0.4-0.7,0.7-1.1,1.1c-1.6,1.5-5.8,4.5-4.3,7.2c1.2,2.2,3.8,3.2,6.2,3.8c12.6,3.3,26.1,1.7,39.1,1.6 c1.3-0.1,2.7-0.1,4-0.4c0.3-0.1,0.5-0.1,0.7-0.2c0.5-0.2,1.1-0.4,1.6-0.8c0.3-0.2,0.6-0.4,0.8-0.7c0.3-0.3,0.6-0.7,0.8-1.1 c0.1-0.5,0.2-1,0.3-1.5c0.1-0.9,0.1-1.9,0.2-2.7C462,556.9,461.2,552,460.5,547.2z"/></g><path fill="#3965C6" d="M460.6,547c-0.2-1.3-0.5-3.3-1.7-4c-0.3-0.2-0.8-0.3-1.2-0.3c-1.2,0-2.6,0.5-3.7,0.7h-0.1 c-1.2,0.2-2.5,0.4-3.7,0.5c-0.3,0-0.6,0.1-0.9,0.1c-0.5,0-1,0.1-1.5,0.1c-0.4,0.1-0.9,0.1-1.3,0.1c-0.1,0-0.2,0-0.3,0 c-0.6,0-1.1,0-1.6,0c-1.1,0-2.1,0-3.1-0.1c-4.3-0.3-11-4.9-14.7-2.6c-1.4,0.9-2.4,2.2-3.5,3.4c-3.1,3.6-6.4,7.1-9.8,10.4l0,0 c-1,3.5,1.1,5.8,5.5,6.2c5.4,0.5,11-0.5,15.9-3c3.3-1.7,6.5-4,10.2-4.1c3.2-0.1,6.2,1.6,8.2,4.1s3,5.6,3.5,8.7 c0.1,1,0.6,1.4,1.2,1.4c0.8,0.1,1.7-0.4,2.4-1.1c0.3-0.4,0.6-0.9,0.8-1.5c0.1-0.5,0.2-1,0.3-1.5c0.1-0.9,0.1-1.9,0.2-2.7 C462,556.9,461.2,552,460.6,547z"/><path fill="#3048AC" d="M428.6,544.1c2.4-2.6,2.4-3.1,6.2-3.1c3.6,0,7.1,0.2,10.7,0.3c1.5,0,3.3,0.4,3.6,1.8 c0.2,0.7-0.1,1.4-0.5,2c-1.7,2.9-4.7,4.7-7.5,6.5c-3,1.9-6,3.7-9,5.6c-1.3,0.8-2.6,1.6-4.1,2.1c-2.6,0.8-5.5,0.4-8.2-0.1 c-0.4-0.1-0.8-0.2-1.1-0.4c-0.6-0.5-0.5-1.4-0.3-2.1C420.1,551.3,424.9,548.2,428.6,544.1z"/></g><linearGradient id="SVGID_3_" gradientUnits="userSpaceOnUse" x1="8892.297" y1="205.092" x2="8926.001" y2="468.699" gradientTransform="matrix(-1 0 0 1 9303.0039 26)"><stop offset=".356" stop-color="#DCC09E"/><stop offset="1" stop-color="#DCC09E"/></linearGradient><path fill="url(#SVGID_3_)" d="M327.9,282.1c0.3-5.7,0.8-11.4,2.4-16.8c4.9-16.4,22.2-20.9,36.1-21.9 c28.3-1.5,36.8,22.8,41.3,49.6c5.9,34.6-15.3,109.4-15.3,113.6s58.5,109.2,58.5,109.2l-24.4,16.8l-70.1-95.3 c-5.6-7.6-9.4-16.6-11-26.3c-5.5-31.9-13.7-65-16.6-97.9c-0.4-3.9-0.6-7.7-0.8-11.6c-0.2-3.7-0.3-7.3-0.3-11 C327.7,287.7,327.7,284.8,327.9,282.1z"/><linearGradient id="SVGID_4_" gradientUnits="userSpaceOnUse" x1="399.3" y1="343.599" x2="448.5" y2="343.599" gradientTransform="matrix(-1 0 0 -1 776.2333 626)"><stop offset=".356" stop-color="#C2A98B"/><stop offset="1" stop-color="#C2A98B"/></linearGradient><path fill="url(#SVGID_4_)" d="M330.7,287.1c6.4-6,14.5-9.9,21.5-15.2c5.2-3.9,9.8-8.5,15.6-11.4c2.7-1.3,6.2-3.7,9.1-3.7 c-0.3,3-1.5,6-2.5,8.9c-1.8,5.2-3.7,10.3-5.5,15.5s-3.7,10.5-7,15c-4.4,6.3-11,10.1-17.7,11.5s-16-2.3-16.2-6.2 c-0.2-3.7-0.3-7.3-0.3-11C328.6,289.4,329.6,288.3,330.7,287.1z"/><linearGradient id="SVGID_5_" gradientUnits="userSpaceOnUse" x1="419.6" y1="275" x2="527.3" y2="275" gradientTransform="matrix(-1 0 0 -1 776.2333 626)"><stop offset=".356" stop-color="#C2A98B"/><stop offset="1" stop-color="#C2A98B"/></linearGradient><path fill="url(#SVGID_5_)" d="M250.7,398.4c-1.3,6-1.8,13.4-1.8,13.4l85.2-86.1l22.5-22.8l-7.1-12.7l-93.6,94.6 C255.9,384.8,252,392.5,250.7,398.4z"/><path fill="#3965C6" d="M252.1,131.1c-10.8,20.7,1,47,12.1,64.6c8.5,13.7,14.2,27.7,19,43c3.4,10.6,8.1,23.6,12.9,33.7 c4.1,8.8,9.2,6.4,19,4.9c22.4-3.5,45.3-13.1,63.5-26.6c10.2-7.7,4.7-13.2,0.9-24.2c-3.6-10.6-6.2-21.5-8.6-32.4 c-8.4-38.4-13.4-103-68.9-96.8C280.9,97.3,261.6,113,252.1,131.1z"/><g><path fill="#3651B4" d="M281.7,138.5c-0.9-2.6-2.3-8.5-5.2-7.9c-0.8,0.1-4.9,7-5.7,5.6c6.2,10.3,9.6,21.9,14,33 c1.1,2.8,3.8,12.7,6.9,13.8c3.9,1.3,8.6-3.1,7.1-6.9C293.8,163.2,286.7,151.3,281.7,138.5z"/><ellipse transform="matrix(0.8864 -0.463 0.463 0.8864 -34.3708 145.5525)" opacity=".5" fill="#FFF" enable-background="new" cx="279.3" cy="142.8" rx="1.7" ry="2.5"/><ellipse transform="matrix(0.8864 -0.463 0.463 0.8864 -43.1927 151.6568)" opacity=".5" fill="#FFF" enable-background="new" cx="287.4" cy="163.8" rx="1.7" ry="2.5"/></g><path opacity=".1" enable-background="new" d="M351.2,155.1c12.7,7.5,22,16.1,19.4,30.9c-1.9,10.7-8.7,86.2-31,75.1 c13.3-4.7,16.5-33,16.5-45.1c0-19.1-10.9-36.4-19.4-52.8C329.7,149.2,340.3,148.5,351.2,155.1z"/><path fill="#745B3E" d="M324.8,276.8c-1.8-5.5-9.6-0.4-13.3-0.1c-1.1,0.1-14.2-0.5-14.1-2.1c-0.3,2.5-0.5,5.2,0.3,7.5 c1.1,3.2,3.6,4.4,5.9,5C307.2,288.1,328.7,289.2,324.8,276.8z"/><path fill="#E0AA88" d="M236.9,242.5c0.5,7.5,9.5,30.8,13,37.7c4.3,8.6,9.9,28.6,9.9,28.6l17,0.8c0.7-5.6-1.1-11.8-1.9-17.4 c-1.8-11.8-6.7-58-6.7-58l0.8-10.3c0,0-27-8.7-30.6-10.4C237.8,213.2,235.9,230.8,236.9,242.5z"/><g><g><polygon fill="#745B3E" points="386.5,243.3 308.5,275 312.4,287.9 393.4,253.2"/><g><path fill="#513B26" d="M325.6,286.1l-9,2.7c-2.2,0.6-4.6-0.7-5.3-3l-2.4-7.8c-0.7-2.3,0.5-4.7,2.7-5.4l9-2.7 c2.2-0.6,4.6,0.7,5.3,3l2.4,7.8C329,283,327.8,285.4,325.6,286.1z M312.4,274.8c-1.1,0.3-1.6,1.4-1.3,2.5l2.4,7.8 c0.4,1.1,1.5,1.7,2.5,1.4l9-2.7c1.1-0.3,1.6-1.4,1.3-2.5l-2.4-7.8c-0.4-1.1-1.5-1.7-2.5-1.4L312.4,274.8z"/></g><g><path fill="#513B26" d="M319.9,278.5l-0.1-0.2c-0.2-0.8-1-1.2-1.8-1l-1.5,0.5c-0.8,0.2-1.2,1-1,1.8l0.1,0.2 c0.2,0.8,1,1.2,1.8,1l1.5-0.5C319.7,280,320.1,279.2,319.9,278.5z"/><path fill="#FFC400" d="M311.1,279.6c-0.7,0.2-1.1,0.9-0.9,1.6l0,0c0.2,0.7,0.9,1.1,1.6,0.9l6.6-2c0.7-0.2,1.1-0.9,0.9-1.6 l0,0c-0.2-0.7-0.9-1.1-1.6-0.9L311.1,279.6z"/></g></g><path fill="none" stroke="#FFC400" stroke-width="2.293" stroke-miterlimit="10" d="M327.9,280.8l-2.6-8.5 c-0.5-1.7-2.2-2.6-3.9-2.1l-10.1,3.1c-1.7,0.5-2.6,2.2-2.1,3.9l2.6,8.5c0.5,1.7,2.2,2.6,3.9,2.1l10.1-3.1 C327.5,284.2,328.4,282.4,327.9,280.8z"/></g><path fill="#E0AA88" d="M365.1,268.3c0.5-2.3-4-1.3-7.6,0.9c-10.3,6.4-21.1,13.5-26.2,24.5c-0.3,0.6-0.6,1.4-0.3,2.1 c0.3,0.7,1,1.1,1.7,1.4c6.4,2.6,21.5-2.7,24.3-6.2C359.2,287.5,364.2,272.4,365.1,268.3z"/><g><rect x="-5.3" y="402.9" transform="matrix(0.7033 -0.7109 0.7109 0.7033 -229.6679 269.5078)" fill="#F9F9F9" width="426.6" height="14"/><polyline fill="#DDD" points="63,566.4 61.4,564.8 361.4,261.6 363,263.2"/><linearGradient id="SVGID_6_" gradientUnits="userSpaceOnUse" x1="8932.002" y1="6172.786" x2="8935.012" y2="6172.786" gradientTransform="matrix(-0.5321 -0.5265 -1.0785 1.0901 11620.8223 -1613.7007)"><stop offset=".012" stop-color="#74757A"/><stop offset="1" stop-color="#74757A"/></linearGradient><polyline opacity=".1" fill="url(#SVGID_6_)" enable-background="new" points="60.7,564.1 59.1,562.6 359.1,259.3 360.7,260.9"/></g><path fill="none" stroke="#555" stroke-width="10" stroke-miterlimit="10" d="M586.5,413.3c-22.4-17.1-27.4-48.4-28.7-76.6 c-1.2-28.1-1.1-58.5-17.5-81.4c-11.3-15.9-29.7-26-48.8-30c-19.2-4-39.1-2.3-58.2,2c-30.1,6.7-55.9,17.7-77.6,39.5"/><path fill="none" stroke="#5F3E53" stroke-width="10" stroke-miterlimit="10" d="M355.7,266.8c7.4-3.9,14.4-8.5,21-13.5"/><path fill="#E0AA88" d="M364.8,189.5l-13.7-16.3l-6.9-8.2l33-29.7l5.1,7.1l0.4,0.6l15.1,21.3c4.3,5.9,5.6,13.5,3.6,20.5 c-5.8,20.8-22.6,56.7-39.4,89.5L347.3,264l19.7-71.9L364.8,189.5z"/><path fill="#C18B6F" d="M352.3,174.6c5.2-4.5,10.3-8.2,15.6-12.6c3.1-1.5,6.2-5.5,8.5-8.1c2.6-3,4.5-6.3,6.6-9.7 c0,0,0.1,0,0.1-0.1c0.2,0.1,1.8,1.7,1.8,2.1c0.2,2.5-3.8,11.2-9.3,20s-11,15.3-14.5,18.9L352.3,174.6z"/><path fill="#3965C6" d="M362.9,119c4.1,3.7,7.7,8.4,11.1,12.7c4.5,5.6,2.8,4.7,2,10.5c-1.7,12.1-18.3,40.9-30.3,29.5 c-7.6-7.2-17.5-15.5-23.9-22.1c-6.7-6.9-12.9-14.4-16-23.7c-2.6-8.1-5.9-16,2.5-21.2c8.6-5.3,9.8-8.2,18.5-4.9 C336.2,102.9,355.7,112.4,362.9,119z"/><path fill="#E0AA88" d="M351.8,252.5c1.5-2.4,1-5.3,2.2-7.6c1.6,1.8,2.4,4.4,3.8,6.4c1.8,2.6,3.4,3.6,3.4,7.2 c0.1,4.6-1.2,9.2-3.6,13.1c-2.2,3.5-6,5.2-8.8,8.3c1-4.5,0.3-12.3-5.9-12.5c-4.2-0.1-8.2,4.1-10.3,7.3c-1.1-1.8-1.2-4-1.2-6.1 c0-2.8,0.2-5.8,2-8c2.1-2.5,5.1-3.1,8.1-3.5C345.3,256.6,349.3,256.3,351.8,252.5z"/><path fill="#3965C6" d="M355.2,180.7l-9.4-9l12.6-56.3c16.8,12.2,25.1,26.7,25.1,26.7C383.3,158.2,355.2,180.7,355.2,180.7z"/><g><g><polygon fill="#E0AA88" points="256.7,103.3 279.4,73 299.1,106.6 267.2,140 257.8,124.6 250.1,112"/><path fill="#C18B6F" d="M256.7,103.2l16.3-12c0,0,3.8,25.5-15,33.3h-0.2l-7.7-12.5L256.7,103.2z"/><path fill="#E0AA88" d="M200.2,59l59.4-28.8l7.5,6l3.5,2.8l0.4,0.3l9.8,33.1l1.3,4.3l0.3,0.9l0.3,0.9l0.4,1.3 c-3.4,3.9-7.3,7.6-10.1,11.9c-3.4,5.3-6.7,10.7-10.7,15.7c-3.2,4-8,11.7-13.6,12c-1.7,0.1-3.4-0.5-5-1.3 c-4.6-2.4-8.3-6.2-11.6-10.2c-0.8-0.9-1.6-1.9-2.3-2.9c-3-4-5.5-8.4-8.7-12.2c-3.3-4.1-7.2-7.5-10.3-11.8l0,0 C205.3,73.4,199.6,64.1,200.2,59z"/><path fill="#E0AA88" d="M246.9,74.9c-0.6-3.3,0.7-6.5,2-9.5c0.1,0,0.1-0.1,0.1-0.1c0.1-0.2,0.1-0.3,0.2-0.4 c1.4-3,2.8-6,4.3-8.9c0.4-0.6,0.7-1.3,1.1-2c1.5-2.7,2.9-5.4,4.5-8c1.4-2.4,5.2-9.8,8.7-9.2c0.6,0.1,1.2,0.4,1.8,0.7 c1.9,1,3.7,2.4,5.1,4c3.3,3.6,4.9,8.7,6,13.6c0.3,1.9,0.3,3.8,0.2,5.6c-0.2,3.1-0.1,6.3,0.3,9.4c0.2,1.6,0.4,3.2,0.8,4.7 c0.4,1.4,0.9,2.8,1.3,4.2c0.1,0.3,0.2,0.6,0.3,0.9c0.3,0.7,0.7,1.3,0.9,2c-0.1-0.3-0.8-0.8-1.1-1c-0.4-0.4-0.9-0.7-1.4-0.9 c-0.7-0.3-1-0.2-1.6,0.1s-1.2,0.6-1.9,0.8c-0.4,0.2-0.7,0.5-1.1,0.7l0.2-0.4c-2.7,0.9-5.6,1.1-8.4,1.3 c-4.1,0.4-8.3,0.7-12.4,1c-1.7,0.1-3.7,0.2-5.1-0.8c-0.7-0.5-1.2-1.3-1.7-2C248.8,78.9,247.6,77,246.9,74.9z"/><path fill="#424242" d="M225.5,27.5c7.6-5.5,14.2-10.4,24.1-6.8c5.4,1.9,12,5.5,15.8,9.9c5.7,6.6,0.3,10.7-4.6,15.6 c-5.4,5.3-14.1,10.7-22.2,7.8c-4.2-1.5-3.6-5-9.1-3.8c-4.1,0.9-8,4.6-11.6,6.6c-4.7,2.6-9,3.2-14,4.7 c-4.4,1.3-3.5,1.5-1.7,6.2c-3.1-1.3-5.9-3.4-8-6C179.3,42.6,215.4,34.7,225.5,27.5z"/><path opacity=".07" fill="#4A263F" enable-background="new" d="M247.2,51.8c0.1-0.9,0.6-1.8,1-2.6 c1.7-3.2,4.2-6.3,7.2-8.5c2.7-2,5.7-4.1,9-5.1c1.4-0.4,2.9-0.7,4.4-0.8c0.4-0.1,1.9-0.3,2.2,0c0.4,0.3,0.1,1.8,0,2.3 c1.3,1.1,2.7,2.6,3.8,4c0.3,0.3,0.5,0.6,0.7,0.9c-1.2,2.3-3.4,3.8-5.8,4.8c-1.2,0.5-2.5,0.9-3.8,1.2c-1.2,0.3-2.5,0.6-3.8,1 c-2.5,0.7-4.9,1.7-6.8,3.4c-0.3,0.3-0.6,0.5-0.8,0.8c-1.7,1.7-3.3,4-5.8,1.9c-0.2-0.2-0.4-0.5-0.6-0.7 C247.6,53.6,247.3,52.6,247.2,51.8z"/><path fill="#424242" d="M257.8,42.8c4.2-3.5,8.8-9.5,14.9-5.6c5.9,3.8,8.3,15.2,8.4,21.5c0.1,9,0.6,16.7,4.2,25.2 c-1.5-3.6-4.5-6.1-7.7-8c-3-1.8-5.7-1.9-5.1-5.6c0.6-3.4,3.3-5.8,0.6-9.3c-1.4-1.9-2.9-2.9-5.3-2.2 c-6.2,1.9-1.2,14.7-8.8,13.1c-2.7-0.6-3.6-3.8-5.7-5.3c-2.5-1.8-4.7-1.5-5.4-5C245.5,52.1,251.4,48.2,257.8,42.8z"/><path fill="none" stroke="#7C4C38" stroke-width=".75" stroke-linecap="round" stroke-miterlimit="10" d="M232,94.3 c-1.5,1.5-3.4,2.6-5.4,3.2c-0.4,0.1-0.8,0.2-1.1,0c-0.3-0.1-0.4-0.5-0.5-0.8c-1.7-5.3-1.4-10.7-2.2-16.5"/><ellipse transform="matrix(0.8683 -0.496 0.496 0.8683 -7.252 126.6443)" fill="#4A263F" cx="234.9" cy="77" rx="1.7" ry="2.2"/><ellipse transform="matrix(0.8683 -0.496 0.496 0.8683 -13.475 120.0254)" fill="#4A263F" cx="219.3" cy="85.4" rx="1.7" ry="2.2"/><g><path fill="#7C4C38" d="M232.4,69.2c-1.1,0.4-2.2,0.9-3.3,1.4c-1.1,0.5-2.1,1-3.2,1.6l-3.4,1.9c0.4-1.4,1.1-2.6,2.1-3.6 s2.1-1.8,3.4-2.4c1.2-0.5,2.6-0.9,4-1c1.4-0.1,2.8,0.1,4.1,0.8C234.8,68.3,233.6,68.7,232.4,69.2z"/></g><g><path fill="#7C4C38" d="M216,78.3c-0.6,0.4-1.1,0.7-1.6,1.1s-1,0.7-1.6,1.1c-0.6,0.3-1.2,0.7-2,1.2 c-0.2-0.9-0.1-1.8,0.3-2.6s1-1.5,1.7-2s1.5-0.8,2.4-0.9c0.8-0.1,1.7,0,2.5,0.5C217,77.4,216.5,77.8,216,78.3z"/></g><path fill="#FFF" d="M233.1,101l-0.4-0.8l10.2-5.8l0.4,0.8c1.5,2.7,0.6,6.1-2.1,7.6l-0.6,0.3 C238,104.6,234.6,103.7,233.1,101z"/><g><path fill="#E0AA88" d="M268.8,76.7c-3.6-0.3-6.2-5.7-5.9-10.9s3.4-8.3,7-8.1s6.3,3.7,6,8.9 C275.6,71.9,272.3,76.9,268.8,76.7z"/><linearGradient id="SVGID_7_" gradientUnits="userSpaceOnUse" x1="7340.547" y1="-5312.668" x2="7332.712" y2="-5317.77" gradientTransform="matrix(-0.645 0.7642 0.7642 0.645 9063.1133 -2112.1174)"><stop offset="0" stop-color="#53113F"/><stop offset="1" stop-color="#53113F" stop-opacity="0.2"/></linearGradient><path opacity=".2" fill="url(#SVGID_7_)" enable-background="new" d="M272.3,69.9c-0.3,0.3-0.7,0.6-1.1,0.6 c-0.5,0-0.9-0.2-1.2-0.5c-1.6-1.5,0.3-3.1-0.4-4.8c-0.1-0.5-0.5-0.8-0.8-1.1c-0.3-0.2-0.4-0.4-0.7-0.5 c-0.5-0.1-1,0.1-1.3,0.3c-0.3,0.3-0.6,0.6-0.8,1c-0.3,0.5-0.6,0.9-0.9,1.2c-0.6-1.1,0.3-2.6,1-3.4c0.4-0.4,0.9-0.8,1.4-1.1 c1.3-0.6,2.8-0.2,3.8,0.7C273.1,63.9,274,67.9,272.3,69.9z"/></g><path fill="#3651B4" d="M287.4,106.9c-1.6,4.8-3.7,9.5-6,14c-0.9,1.7-5.7,12.5-8.1,11.9c7.2,2,14.5,3.9,21.7,5.9 c-0.1-2.4,8.9-28,10.2-30.7c1.7-3.3,4.8-8.1,0.3-11.2c-4.7-1.4-10.4-2.8-13.1-1.5C289.1,97.5,288.6,103.5,287.4,106.9z"/><path fill="#3651B4" d="M256.3,122.1c4,6.8,12.2,8.5,19.2,10.9c-3.4,5.3-8.9,10.7-12.3,16 C257.7,141.1,250.2,132,256.3,122.1z"/></g></g><path fill="none" stroke="#424242" stroke-width="5.784" stroke-miterlimit="10" d="M254.7,338.3v-18.9c0-2.6,2.6-4.5,5.1-3.6 l19.6,7c2.3,0.8,3.9,3.1,3.9,5.6v16.7c0,3.3-3.3,5.6-6.4,4.5l-19.2-6.8C255.8,342.1,254.6,340.4,254.7,338.3z"/><g><path fill="#E0AA88" d="M279.8,314.6c0.7,1,1.7,1.7,2.1,2.9c0.3,0.7,0.1,1.7-0.7,2.5c-0.8,1-2.2,1.5-2.9,2.6 c-0.4,0.6-0.4,1.5-0.3,2.2c0.1,0.9,0.9,1.4,1.4,2.2c0.8,1.2,0.7,3,0.4,4.4s-1,2.7-2.2,3.5c-2.1,1.5-6.5,0.1-8.9-0.2 c-3.5-0.4-6.9-0.8-10.4-1.3c-1-0.2-2-0.3-2.9-0.7c-2.8-1.2-4.3-4.3-5.3-7.2c-0.9-2.6-1.8-5.2-2.1-8c0-0.7-0.1-1.5,0.1-2.2 c0.3-1,0.9-1.8,1.6-2.6c2-2.3,5.2-4.1,6.7-6.6c0.7-1.3,1.1-2.8,1.1-4.3c0-1.8-1.3-5.5-1.3-5.5s4.2-4.2,6.8-4.6 c3.9-0.5,12.2,1.4,12.2,1.4l1.5,8.9c0,0,1.2,5.9,1.8,8.8c0.3,1.2,0.4,2.9,1.3,3.7c0.9,0.9,2.1,0.9,2.9,2.1 c0.3,0.4,0.5,0.8,0.7,1.2c0.4,0.8,0.8,1.7,1.2,2.5c1,1.8,1.9,3.9,1.5,5.9c0.1-0.4-0.8-1.5-1-1.8c-0.4-0.6-0.9-1.2-1.4-1.7 c-0.9-0.9-2.2-2-3.4-2.5c0.3,0,0.6-0.3,0.8-0.6c0.5-0.6,0.9-1.3,0.8-2.1"/><g><line fill="none" stroke="#C47F6C" stroke-linecap="round" stroke-miterlimit="10" x1="267.3" y1="327.4" x2="270.7" y2="334.7"/><line fill="none" stroke="#C47F6C" stroke-linecap="round" stroke-miterlimit="10" x1="260.2" y1="326.5" x2="264" y2="333.8"/><path fill="none" stroke="#C47F6C" stroke-linecap="round" stroke-miterlimit="10" d="M253.8,325.5c0,0,4,6.8,3.9,7.4"/></g></g><path fill="#424242" d="M263.7,346.6c1.7-0.6,4.2,0.7,5.4,1.9c0.2,0.2,0.4,0.4,0.4,0.6c0.1,0.5-0.3,0.9-0.6,1.2 c-1.7,1.6-3.4,3.2-5.1,4.8c-0.4,0.3-0.7,0.7-1.2,0.8c-1.1,0.4-2.2-0.4-3-1.1c-0.6-0.5-1.3-1.3-1.2-2.1 c0.1-0.5,0.4-0.9,0.7-1.2C260.3,350.2,262,347.3,263.7,346.6z"/><g><linearGradient id="SVGID_8_" gradientUnits="userSpaceOnUse" x1="505" y1="107.55" x2="538.6" y2="107.55" gradientTransform="matrix(-1 0 0 -1 776.2333 626)"><stop offset=".356" stop-color="#C2A98B"/><stop offset="1" stop-color="#C2A98B"/></linearGradient><path fill="url(#SVGID_8_)" d="M270.7,525.5l-33.1-5.7l0.9-8.4c0,0,6.9,2.3,15,5.4c8.1,3.1,17.7,4.6,17.7,4.6L270.7,525.5z"/><linearGradient id="SVGID_9_" gradientUnits="userSpaceOnUse" x1="504.642" y1="100.429" x2="540.786" y2="100.429" gradientTransform="matrix(-1 0 0 -1 776.2333 626)"><stop offset=".356" stop-color="#DCC09E"/><stop offset="1" stop-color="#DCC09E"/></linearGradient><path fill="url(#SVGID_9_)" d="M236.4,516.3l35.2,7.1c0,0-1.3,9.7-2.2,11.2s-32.8-4.4-33.7-5.8 C234.8,527.4,236.3,516.3,236.4,516.3z"/></g><g><linearGradient id="SVGID_10_" gradientUnits="userSpaceOnUse" x1="328.363" y1="111.6" x2="359.417" y2="111.6" gradientTransform="matrix(-1 0 0 -1 776.2333 626)"><stop offset=".356" stop-color="#C2A98B"/><stop offset="1" stop-color="#C2A98B"/></linearGradient><path fill="url(#SVGID_10_)" d="M421.2,525.5l26.6-16.2l-3.1-6c0,0-9.6,6.5-15.3,10.1c-5.7,3.6-12.6,5.9-12.6,5.9 L421.2,525.5z"/><linearGradient id="SVGID_11_" gradientUnits="userSpaceOnUse" x1="325.3" y1="106.5" x2="356.1" y2="106.5" gradientTransform="matrix(-1 0 0 -1 776.2333 626)"><stop offset=".356" stop-color="#DCC09E"/><stop offset="1" stop-color="#DCC09E"/></linearGradient><path fill="url(#SVGID_11_)" d="M450.9,515.7c0-1.1-5.1-10.3-5.1-10.3l-25.7,18.5c0,0,4,9.7,5.4,9.7 C426.9,533.6,450.9,516.8,450.9,515.7z"/></g></g></g><path opacity=".06" fill="#FFF" enable-background="new" d="M247.9,53.7c0.1-0.6,0.3-1.3,0.5-1.8 c0.3-0.7,0.6-1.4,1-2c1.7-2.6,3.9-3.8,6.4-5.4c5.2-3.5,7.4-9.6,15-8.2c1.7,0.3,3.4,2.2,4.9,4.6c-2.8-0.7-5.5-0.9-8.5,0.1 c-2.9,1-5.4,3.1-7.7,5.1c-4.9,4.3-9.6,9.5-11.6,15.5C247.3,59.2,247.3,56.2,247.9,53.7z"/><g opacity=".2"><path fill="#FFF" d="M201.5,46c16,6.6,30.8-24.7,45.8-11.6C230.7,25.2,217.6,56.8,201.5,46z"/></g></g></g><g id="Head_1_"><linearGradient id="SVGID_12_" gradientUnits="userSpaceOnUse" x1="680.3" y1="545.75" x2="749.5" y2="545.75" gradientTransform="matrix(-1 0 0 1 776.2333 26)"><stop offset="0" stop-color="#8C8A8A"/><stop offset="1" stop-color="#EDEDED"/><stop offset="1" stop-color="#8C8A8A"/></linearGradient><polyline fill="url(#SVGID_12_)" points="26.7,561.1 49.7,539.7 77.4,552.9 95.9,603.8"/><polygon fill="#E7E7E7" points="57.4,537.7 84.7,550.8 104.1,599.6 95.9,603.8 77.4,552.9 49.7,539.7"/><polygon fill="#CCC" points="49.7,539.7 57.4,537.7 84.7,550.8 77.4,552.9"/><linearGradient id="SVGID_13_" gradientUnits="userSpaceOnUse" x1="1075.521" y1="561.4" x2="1075.521" y2="561.4" gradientTransform="matrix(1 0 0 1 -1008.3873 26)"><stop offset="0" stop-color="#5A5955"/><stop offset=".536" stop-color="#302F2B"/><stop offset="1" stop-color="#646360"/></linearGradient><path fill="none" stroke="url(#SVGID_13_)" stroke-width=".663" stroke-miterlimit="10" d="M67.1,587.4"/><linearGradient id="SVGID_14_" gradientUnits="userSpaceOnUse" x1="1047.821" y1="545" x2="1047.821" y2="545" gradientTransform="matrix(1 0 0 1 -1008.3873 26)"><stop offset="0" stop-color="#5A5955"/><stop offset=".536" stop-color="#302F2B"/><stop offset="1" stop-color="#646360"/></linearGradient><path fill="none" stroke="url(#SVGID_14_)" stroke-width=".663" stroke-miterlimit="10" d="M39.4,571"/></g><g><path fill="#DBDBDB" d="M268.7,572.5v-4.9c0-1.4-1.1-2.5-2.5-2.5c-6.7,0-14.5,2-21.2,2c-4.7,0-22.9,5.7-27.5,5.5 c-4.8-0.3-8.8-4.4-12.2-7.4c-0.2-0.2-0.4-0.4-0.7-0.4c-0.6-0.1-1,0.5-1.2,1c-1.7,3.9-7.1,14.3,22.2,14.2l40.6-5 C267.6,575,268.8,573.9,268.7,572.5z"/><g><path fill="#3965C6" d="M267.8,545.8c-1.7-3.9-3.7-2.5-7.4-2c-7,1-12.2,0.2-19-1.7c-9.5-2.7-13.5,6.7-19.6,12.6 c-3.8,3.6-8.6,5.6-13,8.3c-5.7,3.5-9.5,7-0.1,9.6c7,1.8,14.9,0.8,22,0c8.1-0.9,16.2-2.4,24.3-3.1c7.3-0.6,13.2,0.8,14.3-7.7 C269.6,557.3,269.7,550,267.8,545.8z"/></g><path fill="#3965C6" d="M265.2,542.6c-3.1-0.8-8.9,1.5-12.3,1.5c-5.5,0.1-10.4-3.5-15.7-3.3c-5.3,0.3-9.5,7.7-12.8,11.1 c-4.8,4.9-4.2,9,3.3,9.6c8.2,0.6,13.5-3.6,20.7-6.2c7.1-2.6,12.9,1.5,15.1,8.4c0.7,2,0.4,5.5,3.3,4.6c2.6-0.7,2.3-4.5,2.5-6.5 C269.6,557.7,270.3,544.1,265.2,542.6z"/><path fill="#3651B4" d="M236.2,544.1c2.4-2.6,2.4-3.1,6.2-3.1c3.6,0,7.1,0.2,10.7,0.3c1.5,0,3.3,0.4,3.6,1.8 c0.2,0.7-0.1,1.4-0.5,2c-1.7,2.9-4.7,4.7-7.5,6.5c-3,1.9-6,3.7-9,5.6c-1.3,0.8-2.6,1.6-4.1,2.1c-2.6,0.8-5.5,0.4-8.2-0.1 c-0.4-0.1-0.8-0.2-1.1-0.4c-0.6-0.5-0.5-1.4-0.3-2.1C227.7,551.3,232.5,548.2,236.2,544.1z"/></g></g></g><g id="Carpet_Steam_Cleaner_1_"><path fill="#CCC" d="M567.8,304.2c0-6.6,5.4-12,12-12l57.5,1.1l2,11.7h-71.5V304.2z"/><g><path fill="#E7E7E7" d="M399.1,422.9L426,310.7c0-5.9,4.8-10.7,10.7-10.7h155.7c5.9,0,10.7,4.8,10.7,10.7v118.5H397.5L399.1,422.9 z"/><path fill="#E7E7E7" d="M395.7,431.8c1.4-6.8,1.9-9.5,9.2-9.2c8.8,0.3,17.5,0.4,26.3,0.4c7,0,14.9,1.2,21.8,0.3 c6.5-0.9,5.2-7.4,6.1-12.6c2.9-17.2,6.1-34.4,9.2-51.6c0.7-3.9,0.4-14.4,4.3-16.1c1.8-0.8,4.7,0,6.7,0.1c4.2,0.1,8.5,0,12.8,0 c17.8,0,35.7,0,53.5,0c9,0,18.1,0,27.1,0c8.2,0,17-0.9,25.2,0c5.5,0.6,4.9,4.3,6.1,9.3c2.1,9,4.2,17.9,6.3,26.8 c8.4,35.6,17,71.1,25.1,106.8c-84.5,0-169.1,0.2-253.6,0.5C386.5,468.3,392.1,450.1,395.7,431.8z"/></g><path fill="#F2F2F2" d="M398,422.9h1l26.9-112.2c0-5.9,4.8-10.7,10.7-10.7h69.2l-11.9,43.1l-23.8,86.2l-15.8,57.1 c-40.9,0-72.5,0.1-72.5,0.1L398,422.9z"/><g><g><path fill="#CCC" d="M636.6,490.8"/></g></g><path fill="#CCC" d="M374.4,570.3v-77.2c0-4.3,3.5-7.7,7.7-7.7h251.5c4.3,0,7.7,3.5,7.7,7.7v77.2c0,4.3-3.5,7.7-7.7,7.7H382.1 C377.9,578,374.5,574.6,374.4,570.3z"/><polygon fill="#333" points="430.9,577.9 505.6,577.9 492.2,536.8 438.6,536.8"/><path opacity=".19" enable-background="new" d="M640.5,298.6c3.3,1.2,1.2,4.7,0.3,8.1c-12.7,48.1-33.2,92.5-64.2,131.3 c-25.5,32-60.1,72-98.9,87.5c-13.5,5.4-28.1,7.2-42.6,8.1c-19.4,1.2-41.5,0.9-60.8-0.9c0-3.6,0.5-8.2-1.5-9.7 c-3.2-2.3-6.7,0.9-7-3.1c-0.8-11.5-0.2-23.1,1.7-34.5c0.1-0.7,0.3-1.4,0.7-1.9c0.7-0.8,1.8-0.9,2.8-1c37.6-2.5,75.2,4.9,112.8,1.7 c28.3-2.4,45.7-19.3,63.9-40.1c31.6-36.1,55.4-79.3,75.8-122.5c3-6.4,2-12.8,4.8-19.3c1.3-3.2,4.9-4.8,8.2-3.7H640.5z"/><path fill="#CCC" d="M638.5,293.6c3.3,1.2,5.2,4.7,4.3,8.1c-12.7,48.1-37.2,92.5-68.2,131.3c-25.5,32-60.1,72-98.8,87.5 c-13.5,5.4-28.1,7.2-42.6,8.1c-19.4,1.2-38.8,0.9-58.1-0.9c-2.5-0.2-5.1-0.5-7.1-2c-3.2-2.3-3.9-6.8-4.2-10.8 c-0.8-11.5-0.2-23.1,1.7-34.5c0.1-0.7,0.3-1.4,0.7-1.9c0.7-0.8,1.8-0.9,2.8-1c37.6-2.5,75.2,4.9,112.8,1.7 c28.3-2.4,45.7-19.3,63.9-40.1c31.6-36.1,55.4-79.3,75.8-122.5c3-6.4,6-12.8,8.8-19.3C631.6,294.1,635.2,292.5,638.5,293.6 L638.5,293.6z"/><g><ellipse fill="#222" cx="635.6" cy="546" rx="38.4" ry="48.2"/><ellipse fill="#424242" cx="643.5" cy="546" rx="38.4" ry="48.2"/><ellipse fill="#333" cx="643.5" cy="546" rx="30.4" ry="38.1"/><ellipse fill="#424242" cx="636.3" cy="548.9" rx="13.6" ry="17"/></g><g><ellipse fill="#212121" cx="461.5" cy="568.2" rx="20.7" ry="26"/><ellipse fill="#424242" cx="467.3" cy="568.2" rx="20.7" ry="26"/><ellipse fill="#333" cx="467.3" cy="568.2" rx="16.4" ry="20.5"/><ellipse fill="#424242" cx="463.5" cy="569.8" rx="7.3" ry="9.2"/></g><ellipse transform="matrix(0.263 -0.9648 0.9648 0.263 -94.8421 712.6353)" fill="#CCC" cx="419" cy="418.4" rx="31.9" ry="24"/><path fill="#424242" d="M399.3,397.7h14.4c9,0,16.4,7.3,16.4,16.4v6.8c0,9-7.3,16.4-16.4,16.4h-14.4V397.7z"/><path fill="#333" d="M401.3,397.4c6.7,0,12.1,10.2,12.1,20.9c0,10.6-5.4,19.3-12.1,19.3s-12.1-8.6-12.1-19.3 C389.2,407.6,394.6,397.4,401.3,397.4z"/><path fill="none" stroke="#555" stroke-width="10" stroke-miterlimit="10" d="M518.3,602.6h-98.6c-6.3,0-12.7-0.5-19-1.3 c-26.9-3.3-51.4-25.2-60.8-50.2c-5.4-14.5-6.6-30.4-5.1-45.9c2.1-21.1,9.3-42.1,22.9-58.5s33.7-27.8,54.9-28.7"/></g><g id="Carpet_Head_1_"><polyline fill="#BBB" points="14.9,559.1 49.9,539.8 77.4,552.9 95.8,603.3 96,611.2"/><polygon fill="#E7E7E7" points="95.9,603.1 64.1,558 47.8,548.8 14.9,559.1"/><polyline fill="#CCC" points="96,611.2 95.6,603.5 14.9,559.1 14.9,564.9"/><polygon fill="#CCC" points="47.8,548.8 57.9,543.6 68.4,548.6 64.1,558"/><polygon fill="#CCC" points="95.6,603.3 104.1,599.6 104.2,607.2 96,611.2"/></g></svg>